<svg width="19" height="19" viewBox="0 0 19 19" fill="none" xmlns="http://www.w3.org/2000/svg">
<path d="M0.976746 2.88463V16.5616C0.976746 17.0797 1.18256 17.5767 1.54891 17.9431C1.91526 18.3095 2.41214 18.5154 2.93023 18.5154H16.6047C17.1228 18.5154 17.6196 18.3095 17.986 17.9431C18.3523 17.5767 18.5581 17.0797 18.5581 16.5616V2.88463C18.5581 2.36644 18.3523 1.86947 17.986 1.50305C17.6196 1.13664 17.1228 0.930786 16.6047 0.930786H2.93023C2.41214 0.930786 1.91526 1.13664 1.54891 1.50305C1.18256 1.86947 0.976746 2.36644 0.976746 2.88463ZM4.88372 8.74617H9.76744V4.83848L14.6512 9.72309L9.76744 14.6077V10.7H4.88372V8.74617Z" fill="white"/>
</svg>
