<svg width="26" height="26" viewBox="0 0 26 26" fill="none" xmlns="http://www.w3.org/2000/svg">
<circle cx="13.3839" cy="12.6163" r="12.6163" fill="#577DF4"/>
<path d="M19.4886 15.4652C19.4886 15.6811 19.4028 15.8881 19.2502 16.0408C19.0976 16.1934 18.8905 16.2792 18.6746 16.2792H8.9072C8.69133 16.2792 8.4843 16.1934 8.33165 16.0408C8.17901 15.8881 8.09325 15.6811 8.09325 15.4652V10.5815C8.09325 10.3656 8.17901 10.1586 8.33165 10.0059C8.4843 9.8533 8.69133 9.76754 8.9072 9.76754H9.86116C10.5084 9.76719 11.1291 9.50985 11.5867 9.05208L12.2623 8.37813C12.4145 8.22587 12.6209 8.14011 12.8362 8.13964H14.7441C14.9599 8.13968 15.1669 8.22547 15.3195 8.37813L15.9935 9.05208C16.2203 9.27894 16.4895 9.45889 16.7859 9.58165C17.0823 9.70442 17.3999 9.76758 17.7207 9.76754H18.6746C18.8905 9.76754 19.0976 9.8533 19.2502 10.0059C19.4028 10.1586 19.4886 10.3656 19.4886 10.5815V15.4652ZM8.9072 8.95359C8.47546 8.95359 8.06139 9.1251 7.7561 9.43039C7.45081 9.73569 7.2793 10.1497 7.2793 10.5815V15.4652C7.2793 15.897 7.45081 16.311 7.7561 16.6163C8.06139 16.9216 8.47546 17.0931 8.9072 17.0931H18.6746C19.1064 17.0931 19.5205 16.9216 19.8258 16.6163C20.131 16.311 20.3026 15.897 20.3026 15.4652V10.5815C20.3026 10.1497 20.131 9.73569 19.8258 9.43039C19.5205 9.1251 19.1064 8.95359 18.6746 8.95359H17.7207C17.289 8.9535 16.875 8.78193 16.5698 8.47661L15.8958 7.80266C15.5906 7.49735 15.1766 7.32578 14.7449 7.32568H12.837C12.4053 7.32578 11.9913 7.49735 11.686 7.80266L11.0121 8.47661C10.7069 8.78193 10.2929 8.9535 9.86116 8.95359H8.9072Z" fill="white"/>
<path d="M13.79 14.6508C13.2503 14.6508 12.7327 14.4364 12.3511 14.0548C11.9695 13.6732 11.7551 13.1556 11.7551 12.6159C11.7551 12.0762 11.9695 11.5587 12.3511 11.177C12.7327 10.7954 13.2503 10.581 13.79 10.581C14.3297 10.581 14.8472 10.7954 15.2289 11.177C15.6105 11.5587 15.8249 12.0762 15.8249 12.6159C15.8249 13.1556 15.6105 13.6732 15.2289 14.0548C14.8472 14.4364 14.3297 14.6508 13.79 14.6508ZM13.79 15.4648C14.5455 15.4648 15.2701 15.1646 15.8044 14.6304C16.3387 14.0961 16.6388 13.3715 16.6388 12.6159C16.6388 11.8604 16.3387 11.1358 15.8044 10.6015C15.2701 10.0672 14.5455 9.76709 13.79 9.76709C13.0344 9.76709 12.3098 10.0672 11.7755 10.6015C11.2413 11.1358 10.9411 11.8604 10.9411 12.6159C10.9411 13.3715 11.2413 14.0961 11.7755 14.6304C12.3098 15.1646 13.0344 15.4648 13.79 15.4648ZM9.7202 10.988C9.7202 11.096 9.67733 11.1995 9.601 11.2758C9.52468 11.3521 9.42116 11.395 9.31323 11.395C9.20529 11.395 9.10177 11.3521 9.02545 11.2758C8.94913 11.1995 8.90625 11.096 8.90625 10.988C8.90625 10.8801 8.94913 10.7766 9.02545 10.7002C9.10177 10.6239 9.20529 10.581 9.31323 10.581C9.42116 10.581 9.52468 10.6239 9.601 10.7002C9.67733 10.7766 9.7202 10.8801 9.7202 10.988Z" fill="white"/>
</svg>
