<svg width="20" height="20" viewBox="0 0 20 20" fill="none" xmlns="http://www.w3.org/2000/svg">
<path d="M6.93331 7.46672C7.6717 7.46672 8.3935 7.24776 9.00745 6.83753C9.6214 6.42731 10.0999 5.84424 10.3825 5.16205C10.6651 4.47987 10.739 3.72922 10.5949 3.00502C10.4509 2.28082 10.0953 1.6156 9.57319 1.09348C9.05107 0.571357 8.38585 0.21579 7.66165 0.0717371C6.93745 -0.0723153 6.1868 0.0016176 5.50461 0.284187C4.82243 0.566756 4.23936 1.04527 3.82914 1.65922C3.41891 2.27316 3.19995 2.99497 3.19995 3.73336C3.19995 4.72351 3.59329 5.6731 4.29343 6.37324C4.99357 7.07338 5.94316 7.46672 6.93331 7.46672ZM6.93331 1.06668C7.46073 1.06668 7.97631 1.22307 8.41484 1.51609C8.85337 1.80911 9.19517 2.22559 9.397 2.71286C9.59884 3.20014 9.65165 3.73632 9.54875 4.2536C9.44586 4.77089 9.19188 5.24605 8.81894 5.61899C8.446 5.99193 7.97084 6.24591 7.45355 6.3488C6.93627 6.4517 6.40009 6.39889 5.91281 6.19705C5.42554 5.99522 5.00906 5.65342 4.71604 5.21489C4.42302 4.77636 4.26662 4.26078 4.26662 3.73336C4.26662 3.02611 4.54758 2.34783 5.04768 1.84773C5.54778 1.34763 6.22606 1.06668 6.93331 1.06668Z" fill="black"/>
<path d="M13.5841 11.3972C12.7288 10.4932 11.6981 9.77318 10.555 9.28108C9.41196 8.78897 8.18054 8.53516 6.93605 8.53516C5.69155 8.53516 4.46013 8.78897 3.31707 9.28108C2.174 9.77318 1.14331 10.4932 0.288003 11.3972C0.102569 11.5953 -0.000419689 11.8566 1.2855e-06 12.1279V14.9333C1.2855e-06 15.2162 0.112383 15.4875 0.312423 15.6875C0.512463 15.8876 0.783776 15.9999 1.06668 15.9999H12.8001C13.083 15.9999 13.3543 15.8876 13.5543 15.6875C13.7544 15.4875 13.8668 15.2162 13.8668 14.9333V12.1279C13.8686 11.8573 13.7676 11.5961 13.5841 11.3972ZM12.8001 14.9333H1.06668V12.1226C1.82253 11.3267 2.73244 10.6929 3.74102 10.2598C4.74959 9.8267 5.83575 9.60336 6.93338 9.60336C8.03101 9.60336 9.11717 9.8267 10.1257 10.2598C11.1343 10.6929 12.0442 11.3267 12.8001 12.1226V14.9333Z" fill="black"/>
<path d="M14.5677 0.0742188H15.0073C15.0464 0.0742188 15.066 0.0937602 15.066 0.132843V5.29179C15.066 5.33087 15.0464 5.35042 15.0073 5.35042H14.5677C14.5286 5.35042 14.509 5.33087 14.509 5.29179V0.132843C14.509 0.0937602 14.5286 0.0742188 14.5677 0.0742188Z" fill="black"/>
<path d="M12.3252 2.43384H17.2497C17.2888 2.43384 17.3083 2.45338 17.3083 2.49246V2.93215C17.3083 2.97123 17.2888 2.99077 17.2497 2.99077H12.3252C12.2861 2.99077 12.2666 2.97123 12.2666 2.93215V2.49246C12.2666 2.45338 12.2861 2.43384 12.3252 2.43384Z" fill="black"/>
<path d="M13.5715 16H5.00003C4.69702 15.9997 4.40651 15.8792 4.19225 15.6649C3.97799 15.4506 3.85748 15.1601 3.85718 14.8571V11.4285H5.00003V14.8571H13.5715V2.28568H8.42861V1.14282H13.5715C13.8745 1.14312 14.165 1.26363 14.3793 1.47789C14.5935 1.69215 14.714 1.98267 14.7143 2.28568V14.8571C14.714 15.1601 14.5935 15.4506 14.3793 15.6649C14.165 15.8792 13.8745 15.9997 13.5715 16Z" fill="black"/>
<path d="M8.42847 4.57141H12.4285V5.71427H8.42847V4.57141Z" fill="black"/>
<path d="M7.85718 7.42859H12.4286V8.57145H7.85718V7.42859Z" fill="black"/>
<path d="M7.28564 10.2858H12.4285V11.4286H7.28564V10.2858Z" fill="black"/>
<rect width="20" height="20" rx="3" fill="#04217F"/>
<path d="M11.2588 11.6638C11.5428 11.6638 11.8152 11.7766 12.0161 11.9775C12.2169 12.1783 12.3298 12.4507 12.3298 12.7348V13.4497L12.326 13.5011C12.1784 14.5135 11.2693 15 9.74373 15C8.2239 15 7.30001 14.5193 7.10058 13.5187L7.09391 13.4488V12.7348C7.09391 12.4507 7.20675 12.1783 7.40759 11.9775C7.60844 11.7766 7.88084 11.6638 8.16488 11.6638H11.2588ZM11.2588 12.3778H8.16488C8.0702 12.3778 7.9794 12.4154 7.91245 12.4823C7.8455 12.5493 7.80789 12.6401 7.80789 12.7348V13.4107C7.94117 13.9819 8.54567 14.286 9.74373 14.286C10.9413 14.286 11.5192 13.9857 11.6158 13.4216V12.7348C11.6158 12.6401 11.5782 12.5493 11.5112 12.4823C11.4443 12.4154 11.3535 12.3778 11.2588 12.3778ZM11.7319 8.80742L14.3527 8.80789C14.6367 8.80789 14.9091 8.92073 15.11 9.12157C15.3108 9.32242 15.4237 9.59482 15.4237 9.87886V10.5938L15.4199 10.6452C15.2723 11.6576 14.3632 12.1441 12.8376 12.1441L12.6877 12.1427C12.5472 11.8038 12.2909 11.5259 11.9647 11.3582C12.2098 11.4058 12.5002 11.4301 12.8376 11.4301C14.0352 11.4301 14.6131 11.1298 14.7097 10.5657V9.87886C14.7097 9.78418 14.6721 9.69338 14.6051 9.62643C14.5382 9.55948 14.4474 9.52187 14.3527 9.52187H11.8538C11.8538 9.2715 11.8109 9.03065 11.7319 8.80742ZM5.07097 8.80789L7.69175 8.80742C7.62454 8.99756 7.58463 9.19628 7.57323 9.39764L7.5699 9.52187H5.07097C4.97629 9.52187 4.88549 9.55948 4.81854 9.62643C4.75159 9.69338 4.71398 9.78418 4.71398 9.87886V10.5548C4.84726 11.1259 5.45176 11.4301 6.64982 11.4301C6.94588 11.4301 7.20387 11.4115 7.42663 11.3754C7.11507 11.5447 6.87097 11.8156 6.73502 12.1431L6.64934 12.1441C5.12999 12.1441 4.2061 11.6633 4.00666 10.6628L4 10.5928V9.87886C4 9.59482 4.11283 9.32242 4.31368 9.12157C4.51453 8.92073 4.78693 8.80789 5.07097 8.80789ZM9.71184 7.85592C10.1537 7.85592 10.5774 8.03144 10.8898 8.34386C11.2023 8.65629 11.3778 9.08003 11.3778 9.52187C11.3778 9.96371 11.2023 10.3875 10.8898 10.6999C10.5774 11.0123 10.1537 11.1878 9.71184 11.1878C9.27 11.1878 8.84626 11.0123 8.53383 10.6999C8.2214 10.3875 8.04588 9.96371 8.04588 9.52187C8.04588 9.08003 8.2214 8.65629 8.53383 8.34386C8.84626 8.03144 9.27 7.85592 9.71184 7.85592ZM9.71184 8.5699C9.45936 8.5699 9.21722 8.6702 9.03869 8.84873C8.86016 9.02725 8.75986 9.26939 8.75986 9.52187C8.75986 9.77435 8.86016 10.0165 9.03869 10.195C9.21722 10.3735 9.45936 10.4738 9.71184 10.4738C9.96432 10.4738 10.2065 10.3735 10.385 10.195C10.5635 10.0165 10.6638 9.77435 10.6638 9.52187C10.6638 9.26939 10.5635 9.02725 10.385 8.84873C10.2065 8.6702 9.96432 8.5699 9.71184 8.5699ZM12.8057 5C13.2476 5 13.6713 5.17552 13.9838 5.48795C14.2962 5.80037 14.4717 6.22411 14.4717 6.66595C14.4717 7.10779 14.2962 7.53153 13.9838 7.84396C13.6713 8.15639 13.2476 8.33191 12.8057 8.33191C12.3639 8.33191 11.9402 8.15639 11.6277 7.84396C11.3153 7.53153 11.1398 7.10779 11.1398 6.66595C11.1398 6.22411 11.3153 5.80037 11.6277 5.48795C11.9402 5.17552 12.3639 5 12.8057 5ZM6.61793 5C7.05976 5 7.48351 5.17552 7.79593 5.48795C8.10836 5.80037 8.28388 6.22411 8.28388 6.66595C8.28388 7.10779 8.10836 7.53153 7.79593 7.84396C7.48351 8.15639 7.05976 8.33191 6.61793 8.33191C6.17609 8.33191 5.75235 8.15639 5.43992 7.84396C5.12749 7.53153 4.95197 7.10779 4.95197 6.66595C4.95197 6.22411 5.12749 5.80037 5.43992 5.48795C5.75235 5.17552 6.17609 5 6.61793 5ZM12.8057 5.71398C12.5533 5.71398 12.3111 5.81428 12.1326 5.99281C11.9541 6.17134 11.8538 6.41347 11.8538 6.66595C11.8538 6.91843 11.9541 7.16057 12.1326 7.3391C12.3111 7.51763 12.5533 7.61793 12.8057 7.61793C13.0582 7.61793 13.3004 7.51763 13.4789 7.3391C13.6574 7.16057 13.7577 6.91843 13.7577 6.66595C13.7577 6.41347 13.6574 6.17134 13.4789 5.99281C13.3004 5.81428 13.0582 5.71398 12.8057 5.71398ZM6.61793 5.71398C6.36545 5.71398 6.12331 5.81428 5.94478 5.99281C5.76625 6.17134 5.66595 6.41347 5.66595 6.66595C5.66595 6.91843 5.76625 7.16057 5.94478 7.3391C6.12331 7.51763 6.36545 7.61793 6.61793 7.61793C6.8704 7.61793 7.11254 7.51763 7.29107 7.3391C7.4696 7.16057 7.5699 6.91843 7.5699 6.66595C7.5699 6.41347 7.4696 6.17134 7.29107 5.99281C7.11254 5.81428 6.8704 5.71398 6.61793 5.71398Z" fill="white"/>
</svg>
