<svg width="21" height="18" viewBox="0 0 21 18" fill="none" xmlns="http://www.w3.org/2000/svg">
<path d="M13.0658 11.9949C13.5771 11.9949 14.0674 12.198 14.4289 12.5595C14.7905 12.921 14.9936 13.4113 14.9936 13.9226V15.2095L14.9867 15.302C14.7211 17.1244 13.0847 18 10.3387 18C7.60303 18 5.94002 17.1347 5.58104 15.3337L5.56904 15.2078V13.9226C5.56904 13.4113 5.77214 12.921 6.13367 12.5595C6.49519 12.198 6.98552 11.9949 7.49679 11.9949H13.0658ZM13.0658 13.28H7.49679C7.32636 13.28 7.16292 13.3477 7.04241 13.4682C6.92191 13.5887 6.8542 13.7522 6.8542 13.9226V15.1392C7.0941 16.1674 8.18221 16.7148 10.3387 16.7148C12.4944 16.7148 13.5345 16.1742 13.7084 15.1589V13.9226C13.7084 13.7522 13.6407 13.5887 13.5202 13.4682C13.3997 13.3477 13.2363 13.28 13.0658 13.28ZM13.9175 6.85335L18.6349 6.85421C19.1461 6.85421 19.6365 7.05731 19.998 7.41883C20.3595 7.78035 20.5626 8.27068 20.5626 8.78195V10.0688L20.5558 10.1614C20.2902 11.9837 18.6537 12.8593 15.9078 12.8593L15.6379 12.8568C15.3849 12.2469 14.9237 11.7466 14.3364 11.4448C14.7777 11.5305 15.3003 11.5742 15.9078 11.5742C18.0634 11.5742 19.1035 11.0336 19.2775 10.0183V8.78195C19.2775 8.61153 19.2098 8.44808 19.0892 8.32758C18.9687 8.20707 18.8053 8.13937 18.6349 8.13937H14.1368C14.1368 7.6887 14.0597 7.25518 13.9175 6.85335ZM1.92775 6.85421L6.64515 6.85335C6.52417 7.19561 6.45234 7.55331 6.43181 7.91575L6.42582 8.13937H1.92775C1.75732 8.13937 1.59388 8.20707 1.47337 8.32758C1.35286 8.44808 1.28516 8.61153 1.28516 8.78195V9.99857C1.52506 11.0267 2.61317 11.5742 4.76967 11.5742C5.30258 11.5742 5.76696 11.5408 6.16793 11.4757C5.60713 11.7804 5.16774 12.2682 4.92303 12.8576L4.76881 12.8593C2.03399 12.8593 0.370984 11.994 0.0119948 10.1931L0 10.0671V8.78195C0 8.27068 0.203101 7.78035 0.564623 7.41883C0.926146 7.05731 1.41648 6.85421 1.92775 6.85421ZM10.2813 5.14065C11.0766 5.14065 11.8394 5.45659 12.4017 6.01896C12.9641 6.58133 13.28 7.34406 13.28 8.13937C13.28 8.93468 12.9641 9.69741 12.4017 10.2598C11.8394 10.8221 11.0766 11.1381 10.2813 11.1381C9.486 11.1381 8.72326 10.8221 8.1609 10.2598C7.59853 9.69741 7.28259 8.93468 7.28259 8.13937C7.28259 7.34406 7.59853 6.58133 8.1609 6.01896C8.72326 5.45659 9.486 5.14065 10.2813 5.14065ZM10.2813 6.42582C9.82685 6.42582 9.391 6.60635 9.06964 6.92771C8.74829 7.24906 8.56776 7.68491 8.56776 8.13937C8.56776 8.59383 8.74829 9.02968 9.06964 9.35103C9.391 9.67239 9.82685 9.85292 10.2813 9.85292C10.7358 9.85292 11.1716 9.67239 11.493 9.35103C11.8143 9.02968 11.9949 8.59383 11.9949 8.13937C11.9949 7.68491 11.8143 7.24906 11.493 6.92771C11.1716 6.60635 10.7358 6.42582 10.2813 6.42582ZM15.8503 0C16.6457 0 17.4084 0.315935 17.9708 0.878303C18.5331 1.44067 18.8491 2.20341 18.8491 2.99871C18.8491 3.79402 18.5331 4.55676 17.9708 5.11913C17.4084 5.68149 16.6457 5.99743 15.8503 5.99743C15.055 5.99743 14.2923 5.68149 13.7299 5.11913C13.1676 4.55676 12.8516 3.79402 12.8516 2.99871C12.8516 2.20341 13.1676 1.44067 13.7299 0.878303C14.2923 0.315935 15.055 0 15.8503 0ZM4.71227 0C5.50757 0 6.27031 0.315935 6.83268 0.878303C7.39504 1.44067 7.71098 2.20341 7.71098 2.99871C7.71098 3.79402 7.39504 4.55676 6.83268 5.11913C6.27031 5.68149 5.50757 5.99743 4.71227 5.99743C3.91696 5.99743 3.15422 5.68149 2.59185 5.11913C2.02949 4.55676 1.71355 3.79402 1.71355 2.99871C1.71355 2.20341 2.02949 1.44067 2.59185 0.878303C3.15422 0.315935 3.91696 0 4.71227 0ZM15.8503 1.28516C15.3959 1.28516 14.96 1.4657 14.6387 1.78705C14.3173 2.1084 14.1368 2.54425 14.1368 2.99871C14.1368 3.45318 14.3173 3.88902 14.6387 4.21038C14.96 4.53173 15.3959 4.71227 15.8503 4.71227C16.3048 4.71227 16.7407 4.53173 17.062 4.21038C17.3834 3.88902 17.5639 3.45318 17.5639 2.99871C17.5639 2.54425 17.3834 2.1084 17.062 1.78705C16.7407 1.4657 16.3048 1.28516 15.8503 1.28516ZM4.71227 1.28516C4.2578 1.28516 3.82196 1.4657 3.5006 1.78705C3.17925 2.1084 2.99871 2.54425 2.99871 2.99871C2.99871 3.45318 3.17925 3.88902 3.5006 4.21038C3.82196 4.53173 4.2578 4.71227 4.71227 4.71227C5.16673 4.71227 5.60258 4.53173 5.92393 4.21038C6.24528 3.88902 6.42582 3.45318 6.42582 2.99871C6.42582 2.54425 6.24528 2.1084 5.92393 1.78705C5.60258 1.4657 5.16673 1.28516 4.71227 1.28516Z" fill="#AAAAAA"/>
</svg>
