<svg width="160" height="122" viewBox="0 0 160 122" fill="none" xmlns="http://www.w3.org/2000/svg">
<path d="M142.219 102.577C140.104 98.741 138.56 94.6605 136.845 90.3351C135.701 87.438 133.814 84.1736 129.812 83.2758C125.867 82.3781 121.694 84.2144 119.235 86.6219C116.834 88.9886 115.633 91.8857 113.575 94.4157C109.859 99.0267 103.227 100.945 97.7379 96.9048C89.9051 91.1104 86.4175 83.235 81.4434 76.1757C77.8414 71.0751 74.8112 65.0767 70.2945 60.3433C63.3765 53.1616 53.8857 47 41.3075 47C33.3031 47.8569 26.2708 52.9168 21.5254 59.2416C16.7799 65.5664 13.9784 73.0745 11.6343 80.5419C7.34628 94.1708 4.14455 108.085 1 122L160 120.694C159.371 120.694 155.483 116.981 154.74 116.45C148.622 112.248 144.963 107.596 142.219 102.577Z" fill="#F2F8FF"/>
<path d="M140.019 109.031C139.814 113.449 134.987 121.182 130.568 120.977C126.15 120.773 123.777 112.672 124.022 108.254C124.227 103.835 128.973 81.7016 133.391 81.9062C137.769 82.1108 140.223 104.612 140.019 109.031Z" fill="#FEB16A"/>
<path d="M133.146 84.7698L130.896 120.609" stroke="#B5641A" stroke-width="0.8675" stroke-miterlimit="10" stroke-linecap="round" stroke-linejoin="round"/>
<path d="M129.873 108.09C128.85 110.299 128.114 112.631 127.623 115.045C127.377 116.272 127.255 117.581 127.787 118.727C128.4 119.954 129.75 120.65 131.1 120.895C134.373 121.427 137.687 119.423 139.61 116.722C141.533 114.022 142.392 110.667 143.129 107.435C143.742 104.899 144.315 102.28 145.461 99.9074C145.952 98.8846 148.815 94.957 147.465 93.9342C145.624 92.5023 140.265 94.057 136.869 97.78C134.046 100.848 131.591 104.326 129.873 108.09Z" fill="#FF8585"/>
<path d="M131.101 120.895C131.101 120.895 135.069 105.431 144.643 96.5935" stroke="#FEB16A" stroke-width="0.8675" stroke-miterlimit="10" stroke-linecap="round" stroke-linejoin="round"/>
<path d="M153.152 104.449C152.825 105.063 152.17 105.472 151.597 105.799C150.902 106.208 150.124 106.536 149.388 106.904C148.447 107.354 147.465 107.804 146.565 108.377C145.91 108.786 145.338 109.236 144.847 109.768C145.624 108.009 146.524 106.495 147.588 105.104C148.979 103.304 150.411 102.404 151.843 102.404C151.884 102.404 151.924 102.404 151.924 102.404C152.375 102.404 152.702 102.526 152.947 102.731C153.438 103.099 153.438 103.917 153.152 104.449Z" fill="#B5641A"/>
<path d="M154.747 114.473C154.175 114.882 153.438 114.964 152.784 115.045C151.965 115.086 151.147 115.086 150.329 115.086C149.306 115.086 148.201 115.086 147.179 115.209C146.401 115.291 145.665 115.455 145.01 115.7C146.442 114.432 147.915 113.45 149.47 112.673C151.515 111.65 153.193 111.445 154.502 112.059C154.543 112.059 154.543 112.1 154.584 112.1C154.993 112.304 155.238 112.55 155.361 112.836C155.606 113.368 155.238 114.104 154.747 114.473Z" fill="#B5641A"/>
<path d="M150.942 119.382C150.451 119.3 150.042 119.014 149.715 118.727C149.265 118.359 148.856 117.991 148.488 117.582C147.956 117.091 147.424 116.6 146.851 116.15C146.442 115.823 145.992 115.577 145.542 115.414C146.851 115.454 148.038 115.659 149.183 115.986C150.697 116.436 151.597 117.132 151.965 118.032C151.965 118.073 151.965 118.073 152.006 118.114C152.129 118.4 152.129 118.646 152.047 118.85C151.883 119.218 151.352 119.423 150.942 119.382Z" fill="#B5641A"/>
<path d="M140.183 120.978C140.183 120.978 140.224 111.527 151.761 103.508" stroke="#2A294F" stroke-width="0.7798" stroke-miterlimit="10" stroke-linecap="round" stroke-linejoin="round"/>
<path d="M140.183 120.978C140.183 120.978 143.742 113.368 153.356 113.368" stroke="#2A294F" stroke-width="0.7798" stroke-miterlimit="10" stroke-linecap="round" stroke-linejoin="round"/>
<path d="M145.419 115.495C145.419 115.495 147.26 115.373 151.147 118.277" stroke="#2A294F" stroke-width="0.7798" stroke-miterlimit="10" stroke-linecap="round" stroke-linejoin="round"/>
<path d="M65.3957 121.059C62.7364 110.954 60.0362 100.889 56.886 91.1113C55.1268 85.5882 53.163 80.1059 50.4628 75.6874C47.7626 71.2689 44.1623 68.0369 40.5621 68.0369C34.998 69.1006 31.4386 74.5828 29.0657 80.6787C27.5111 84.6472 26.7747 89.4748 25.67 93.6888C24.1563 99.4983 23.3789 105.799 20.4742 110.872C18.4695 114.431 15.3602 113.531 13.2736 110.34C12.1281 108.581 11.3099 106.494 10.0007 104.858C8.69148 103.262 6.68679 102.199 5.00939 103.221C3.33199 104.244 2.80013 106.903 2.59557 109.194C2.26828 112.631 1.98189 115.863 1.40912 118.972C1.28638 119.668 1.16365 120.323 1 120.977H65.3957V121.059Z" fill="#F2F8FF"/>
<path d="M41.5438 107.149C39.8664 105.226 37.7799 103.549 37.0843 101.135C36.5934 99.3758 36.9616 97.4939 37.1662 95.6528C37.3707 93.8118 37.2889 91.8071 36.1024 90.3751C35.1206 89.2296 33.6068 88.6977 32.0931 88.4114C30.6202 88.0841 29.0656 87.8795 27.7564 87.1431C25.6289 85.9157 26.0381 83.8292 24.8925 82.0291C23.6242 79.9834 20.5967 77.3651 18.0602 78.7152C15.36 80.1471 15.7691 84.5247 17.5692 86.4476C18.7557 87.7159 20.3104 88.9432 20.474 90.7024C20.7195 93.3208 17.7329 95.6937 18.5511 98.1894C19.1648 100.03 21.4968 100.685 22.6424 102.24C23.7879 103.794 23.5424 105.963 22.8878 107.804C22.2332 109.604 21.1695 111.281 20.7604 113.163C19.9012 117.009 22.9287 119.668 26.3654 120.527C29.5156 121.305 36.3479 120.937 36.3479 120.937C38.8027 120.077 41.5029 117.95 42.812 115.618C43.8349 113.859 43.9576 111.609 43.1803 109.727C42.853 108.786 42.2393 107.926 41.5438 107.149Z" fill="#FEB16A"/>
<path d="M21.1289 82.8474C21.1289 82.8474 32.7889 100.849 34.0571 120.855" stroke="#FEB16A" stroke-miterlimit="10" stroke-linecap="round" stroke-linejoin="round"/>
<path d="M10.7372 107.149C10.9008 106.986 11.1872 106.904 11.5145 106.904C11.5554 106.904 11.5554 106.904 11.5963 106.904C12.701 106.904 13.7647 107.599 14.8284 108.949C15.6466 109.972 16.3012 111.159 16.9149 112.468C16.5467 112.1 16.0967 111.731 15.6057 111.445C14.9102 111.036 14.1738 110.668 13.4783 110.34C12.9055 110.095 12.3327 109.809 11.8009 109.522C11.3509 109.277 10.9008 108.949 10.6144 108.499C10.369 108.09 10.369 107.477 10.7372 107.149Z" fill="#FEB16A"/>
<path d="M8.93686 114.8C9.01869 114.595 9.22325 114.391 9.55055 114.227C9.59146 114.227 9.59146 114.186 9.63237 114.186C10.6143 113.736 11.8825 113.9 13.4372 114.677C14.6237 115.25 15.7283 116.027 16.8329 116.968C16.342 116.804 15.7692 116.641 15.1964 116.6C14.4191 116.518 13.6009 116.518 12.7826 116.518C12.1689 116.518 11.5552 116.518 10.9006 116.477C10.4097 116.436 9.83693 116.354 9.3869 116.068C9.01869 115.782 8.7323 115.209 8.93686 114.8Z" fill="#FEB16A"/>
<path d="M11.4326 119.341C11.3917 119.177 11.3917 119.014 11.4735 118.768V118.727C11.7599 118.032 12.4554 117.5 13.601 117.173C14.4601 116.927 15.3602 116.764 16.3421 116.723C16.0148 116.845 15.6875 117.05 15.3602 117.295C14.9102 117.623 14.501 117.991 14.1328 118.359C13.8465 118.646 13.5192 118.932 13.1919 119.218C12.9464 119.423 12.6191 119.668 12.2509 119.709C11.9236 119.791 11.5554 119.668 11.4326 119.341Z" fill="#FEB16A"/>
<path d="M20.3924 120.978C20.3924 120.978 20.3515 113.818 11.6372 107.763" stroke="#2A294F" stroke-width="0.7798" stroke-miterlimit="10" stroke-linecap="round" stroke-linejoin="round"/>
<path d="M20.3923 120.977C20.3923 120.977 17.6921 115.25 10.4507 115.25" stroke="#2A294F" stroke-width="0.7798" stroke-miterlimit="10" stroke-linecap="round" stroke-linejoin="round"/>
<path d="M16.4241 116.845C16.4241 116.845 15.0331 116.723 12.0874 118.973" stroke="#2A294F" stroke-width="0.7798" stroke-miterlimit="10" stroke-linecap="round" stroke-linejoin="round"/>
<path d="M114.04 120.977H37.084C34.9566 120.977 33.2383 119.259 33.2383 117.131V12.7237C33.2383 10.5962 34.9566 8.87793 37.084 8.87793H114.081C116.208 8.87793 117.926 10.5962 117.926 12.7237V117.091C117.926 119.259 116.208 120.977 114.04 120.977Z" fill="#577DF4"/>
<path d="M33.1978 36.1663V117.09C33.1978 119.218 34.9161 120.936 37.0435 120.936H114.04C116.168 120.936 117.886 119.218 117.886 117.09V101.135L33.1978 36.1663Z" fill="#FF8585"/>
<path d="M111.422 115.822H39.703C38.8438 115.822 38.1074 115.127 38.1074 114.227V15.6283C38.1074 14.7691 38.8029 14.0327 39.703 14.0327H111.422C112.281 14.0327 113.018 14.7282 113.018 15.6283V114.227C113.018 115.086 112.281 115.822 111.422 115.822Z" fill="#F3F4F6"/>
<path d="M82.0061 6.75051C82.0061 6.62777 82.0061 6.54594 82.0061 6.42321C82.0061 2.86385 79.1423 0 75.5829 0C72.0235 0 69.1597 2.86385 69.1597 6.42321C69.1597 6.54594 69.1597 6.62777 69.1597 6.75051H59.709V16.5694H91.4977V6.75051H82.0061Z" fill="#FF8585"/>
<path d="M59.6685 6.75049V16.5694H91.4572L59.6685 6.75049Z" fill="#FFCC91"/>
<path d="M76.9688 9.73532C78.8041 8.9702 79.6716 6.86216 78.9065 5.02689C78.1414 3.19162 76.0333 2.3241 74.198 3.08923C72.3628 3.85435 71.4953 5.96239 72.2604 7.79766C73.0255 9.63293 75.1335 10.5004 76.9688 9.73532Z" fill="#FF8585"/>
<path d="M73.0056 3.8457C71.5737 5.27763 71.5737 7.5278 73.0056 8.95972C74.4375 10.3916 76.6877 10.3916 78.1196 8.95972L73.0056 3.8457Z" fill="#FEB16A"/>
<path d="M91.4572 16.5693H59.6685V17.2648H91.4572V16.5693Z" fill="#CDE1F9"/>
<path d="M103.69 33.548H46.654C46.2975 33.548 46.0005 33.3435 46.0005 33.098C46.0005 32.8525 46.2975 32.6479 46.654 32.6479H103.69C104.047 32.6479 104.344 32.8525 104.344 33.098C104.344 33.3435 104.047 33.548 103.69 33.548Z" fill="#D5D5D5"/>
<path d="M103.69 35.5937H46.6535C46.2971 35.5937 46 35.3891 46 35.1436C46 34.8982 46.2971 34.6936 46.6535 34.6936H103.69C104.046 34.6936 104.344 34.8982 104.344 35.1436C104.344 35.3891 104.046 35.5937 103.69 35.5937Z" fill="#D5D5D5"/>
<path d="M103.69 37.6393H46.6535C46.2971 37.6393 46 37.4348 46 37.1893C46 36.9438 46.2971 36.7393 46.6535 36.7393H103.69C104.046 36.7393 104.344 36.9438 104.344 37.1893C104.344 37.4348 104.046 37.6393 103.69 37.6393Z" fill="#D5D5D5"/>
<path d="M103.69 39.685H46.6535C46.2971 39.685 46 39.4804 46 39.2349C46 38.9895 46.2971 38.7849 46.6535 38.7849H103.69C104.046 38.7849 104.344 38.9895 104.344 39.2349C104.344 39.4804 104.046 39.685 103.69 39.685Z" fill="#D5D5D5"/>
<path d="M48.3804 56.1725L52.1932 59.0773L59.9458 51.8767" stroke="#F3F4F6" stroke-width="2" stroke-miterlimit="10"/>
<path d="M103.69 52.9814H46.654C46.2975 52.9814 46.0005 52.7768 46.0005 52.5313C46.0005 52.2859 46.2975 52.0813 46.654 52.0813H103.69C104.046 52.0813 104.344 52.2859 104.344 52.5313C104.344 52.7768 104.046 52.9814 103.69 52.9814Z" fill="#D5D5D5"/>
<path d="M103.689 55.0273H46.6535C46.2971 55.0273 46 54.8227 46 54.5772C46 54.3318 46.2971 54.1272 46.6535 54.1272H103.689C104.046 54.1272 104.343 54.3318 104.343 54.5772C104.343 54.8227 104.046 55.0273 103.689 55.0273Z" fill="#D5D5D5"/>
<path d="M103.689 57.0729H46.6535C46.2971 57.0729 46 56.8684 46 56.6229C46 56.3774 46.2971 56.1729 46.6535 56.1729H103.689C104.046 56.1729 104.343 56.3774 104.343 56.6229C104.343 56.8684 104.046 57.0729 103.689 57.0729Z" fill="#D5D5D5"/>
<path d="M103.689 59.1183H46.6535C46.2971 59.1183 46 58.9138 46 58.6683C46 58.4228 46.2971 58.2183 46.6535 58.2183H103.689C104.046 58.2183 104.343 58.4228 104.343 58.6683C104.343 58.9138 104.046 59.1183 103.689 59.1183Z" fill="#D5D5D5"/>
<path d="M103.69 72.3737H46.654C46.2975 72.3737 46.0005 72.1691 46.0005 71.9237C46.0005 71.6782 46.2975 71.4736 46.654 71.4736H103.69C104.046 71.4736 104.344 71.6782 104.344 71.9237C104.344 72.1691 104.046 72.3737 103.69 72.3737Z" fill="#D5D5D5"/>
<path d="M103.689 74.4193H46.6535C46.2971 74.4193 46 74.2148 46 73.9693C46 73.7239 46.2971 73.5193 46.6535 73.5193H103.689C104.046 73.5193 104.343 73.7239 104.343 73.9693C104.343 74.2148 104.046 74.4193 103.689 74.4193Z" fill="#D5D5D5"/>
<path d="M103.689 76.465H46.6535C46.2971 76.465 46 76.2605 46 76.015C46 75.7695 46.2971 75.5649 46.6535 75.5649H103.689C104.046 75.5649 104.343 75.7695 104.343 76.015C104.343 76.2605 104.046 76.465 103.689 76.465Z" fill="#D5D5D5"/>
<path d="M103.689 78.5104H46.6535C46.2971 78.5104 46 78.3059 46 78.0604C46 77.8149 46.2971 77.6104 46.6535 77.6104H103.689C104.046 77.6104 104.343 77.8149 104.343 78.0604C104.343 78.3059 104.046 78.5104 103.689 78.5104Z" fill="#D5D5D5"/>
<path d="M103.69 91.766H46.654C46.2975 91.766 46.0005 91.5615 46.0005 91.316C46.0005 91.0705 46.2975 90.866 46.654 90.866H103.69C104.046 90.866 104.344 91.0705 104.344 91.316C104.344 91.5615 104.046 91.766 103.69 91.766Z" fill="#D5D5D5"/>
<path d="M103.689 93.8114H46.6535C46.2971 93.8114 46 93.6069 46 93.3614C46 93.1159 46.2971 92.9114 46.6535 92.9114H103.689C104.046 92.9114 104.343 93.1159 104.343 93.3614C104.343 93.6069 104.046 93.8114 103.689 93.8114Z" fill="#D5D5D5"/>
<path d="M103.689 95.8571H46.6535C46.2971 95.8571 46 95.6525 46 95.4071C46 95.1616 46.2971 94.957 46.6535 94.957H103.689C104.046 94.957 104.343 95.1616 104.343 95.4071C104.343 95.6525 104.046 95.8571 103.689 95.8571Z" fill="#D5D5D5"/>
<path d="M103.689 97.9028H46.6535C46.2971 97.9028 46 97.6982 46 97.4527C46 97.2072 46.2971 97.0027 46.6535 97.0027H103.689C104.046 97.0027 104.343 97.2072 104.343 97.4527C104.343 97.6982 104.046 97.9028 103.689 97.9028Z" fill="#D5D5D5"/>
<path d="M1.24512 121.141H159.575" stroke="#2A294F" stroke-width="0.7798" stroke-miterlimit="10" stroke-linecap="round" stroke-linejoin="round"/>
</svg>
