<svg width="20" height="20" viewBox="0 0 20 20" fill="none" xmlns="http://www.w3.org/2000/svg">
<path d="M1 3H18.92V14.52H9.96L4.84 19V14.52H1V3Z" stroke="black" stroke-linecap="round" stroke-linejoin="round"/>
<path d="M9.53175 7.85744C9.89511 7.85744 10.2503 7.74969 10.5524 7.54782C10.8545 7.34595 11.09 7.05903 11.2291 6.72333C11.3681 6.38763 11.4045 6.01824 11.3336 5.66186C11.2627 5.30548 11.0878 4.97813 10.8308 4.7212C10.5739 4.46427 10.2465 4.28929 9.89016 4.21841C9.53379 4.14752 9.16439 4.1839 8.82869 4.32295C8.493 4.462 8.20607 4.69748 8.0042 4.9996C7.80233 5.30172 7.69458 5.65692 7.69458 6.02027C7.69458 6.50752 7.88814 6.97481 8.23267 7.31935C8.57721 7.66388 9.0445 7.85744 9.53175 7.85744ZM9.53175 4.70801C9.79129 4.70801 10.045 4.78497 10.2608 4.92917C10.4766 5.07336 10.6448 5.27831 10.7441 5.51809C10.8434 5.75788 10.8694 6.02173 10.8188 6.27628C10.7682 6.53084 10.6432 6.76466 10.4597 6.94818C10.2761 7.13171 10.0423 7.25669 9.78776 7.30732C9.5332 7.35796 9.26935 7.33197 9.02957 7.23265C8.78978 7.13333 8.58483 6.96513 8.44064 6.74933C8.29645 6.53353 8.21949 6.27982 8.21949 6.02027C8.21949 5.67224 8.35774 5.33846 8.60384 5.09236C8.84994 4.84627 9.18371 4.70801 9.53175 4.70801Z" fill="black"/>
<path d="M12.8045 9.79148C12.3836 9.34662 11.8764 8.99228 11.314 8.75012C10.7515 8.50796 10.1455 8.38306 9.53307 8.38306C8.92066 8.38306 8.31468 8.50796 7.75219 8.75012C7.18969 8.99228 6.68249 9.34662 6.2616 9.79148C6.17035 9.88894 6.11967 10.0175 6.11987 10.151V11.5315C6.11987 11.6708 6.17518 11.8043 6.27361 11.9027C6.37205 12.0011 6.50557 12.0564 6.64478 12.0564H12.4187C12.5579 12.0564 12.6915 12.0011 12.7899 11.9027C12.8883 11.8043 12.9436 11.6708 12.9436 11.5315V10.151C12.9446 10.0179 12.8948 9.88935 12.8045 9.79148ZM12.4187 11.5315H6.64478V10.1484C7.01673 9.75675 7.46449 9.44487 7.96081 9.23174C8.45713 9.01862 8.99162 8.90871 9.53176 8.90871C10.0719 8.90871 10.6064 9.01862 11.1027 9.23174C11.599 9.44487 12.0468 9.75675 12.4187 10.1484V11.5315Z" fill="black"/>
<path d="M6.93331 7.46672C7.6717 7.46672 8.3935 7.24776 9.00745 6.83753C9.6214 6.42731 10.0999 5.84424 10.3825 5.16205C10.6651 4.47987 10.739 3.72922 10.5949 3.00502C10.4509 2.28082 10.0953 1.6156 9.57319 1.09348C9.05107 0.571357 8.38585 0.21579 7.66165 0.0717371C6.93745 -0.0723153 6.1868 0.0016176 5.50461 0.284187C4.82243 0.566756 4.23936 1.04527 3.82914 1.65922C3.41891 2.27316 3.19995 2.99497 3.19995 3.73336C3.19995 4.72351 3.59329 5.6731 4.29343 6.37324C4.99357 7.07338 5.94316 7.46672 6.93331 7.46672ZM6.93331 1.06668C7.46073 1.06668 7.97631 1.22307 8.41484 1.51609C8.85337 1.80911 9.19517 2.22559 9.397 2.71286C9.59884 3.20014 9.65165 3.73632 9.54875 4.2536C9.44586 4.77089 9.19188 5.24605 8.81894 5.61899C8.446 5.99193 7.97084 6.24591 7.45355 6.3488C6.93627 6.4517 6.40009 6.39889 5.91281 6.19705C5.42554 5.99522 5.00906 5.65342 4.71604 5.21489C4.42302 4.77636 4.26662 4.26078 4.26662 3.73336C4.26662 3.02611 4.54758 2.34783 5.04768 1.84773C5.54778 1.34763 6.22606 1.06668 6.93331 1.06668Z" fill="black"/>
<path d="M13.5841 11.3972C12.7288 10.4932 11.6981 9.77318 10.555 9.28108C9.41196 8.78897 8.18054 8.53516 6.93605 8.53516C5.69155 8.53516 4.46013 8.78897 3.31707 9.28108C2.174 9.77318 1.14331 10.4932 0.288003 11.3972C0.102569 11.5953 -0.000419689 11.8566 1.2855e-06 12.1279V14.9333C1.2855e-06 15.2162 0.112383 15.4875 0.312423 15.6875C0.512463 15.8876 0.783776 15.9999 1.06668 15.9999H12.8001C13.083 15.9999 13.3543 15.8876 13.5543 15.6875C13.7544 15.4875 13.8668 15.2162 13.8668 14.9333V12.1279C13.8686 11.8573 13.7676 11.5961 13.5841 11.3972ZM12.8001 14.9333H1.06668V12.1226C1.82253 11.3267 2.73244 10.6929 3.74102 10.2598C4.74959 9.8267 5.83575 9.60336 6.93338 9.60336C8.03101 9.60336 9.11717 9.8267 10.1257 10.2598C11.1343 10.6929 12.0442 11.3267 12.8001 12.1226V14.9333Z" fill="black"/>
<path d="M14.5677 0.0742188H15.0073C15.0464 0.0742188 15.066 0.0937602 15.066 0.132843V5.29179C15.066 5.33087 15.0464 5.35042 15.0073 5.35042H14.5677C14.5286 5.35042 14.509 5.33087 14.509 5.29179V0.132843C14.509 0.0937602 14.5286 0.0742188 14.5677 0.0742188Z" fill="black"/>
<path d="M12.3252 2.43384H17.2497C17.2888 2.43384 17.3083 2.45338 17.3083 2.49246V2.93215C17.3083 2.97123 17.2888 2.99077 17.2497 2.99077H12.3252C12.2861 2.99077 12.2666 2.97123 12.2666 2.93215V2.49246C12.2666 2.45338 12.2861 2.43384 12.3252 2.43384Z" fill="black"/>
<path d="M13.5715 16H5.00003C4.69702 15.9997 4.40651 15.8792 4.19225 15.6649C3.97799 15.4506 3.85748 15.1601 3.85718 14.8571V11.4285H5.00003V14.8571H13.5715V2.28568H8.42861V1.14282H13.5715C13.8745 1.14312 14.165 1.26363 14.3793 1.47789C14.5935 1.69215 14.714 1.98267 14.7143 2.28568V14.8571C14.714 15.1601 14.5935 15.4506 14.3793 15.6649C14.165 15.8792 13.8745 15.9997 13.5715 16Z" fill="black"/>
<path d="M8.42847 4.57141H12.4285V5.71427H8.42847V4.57141Z" fill="black"/>
<path d="M7.85718 7.42859H12.4286V8.57145H7.85718V7.42859Z" fill="black"/>
<path d="M7.28564 10.2858H12.4285V11.4286H7.28564V10.2858Z" fill="black"/>
<rect width="20" height="20" rx="3" fill="#83878D"/>
<path d="M15 10V5.83333C15 5.61232 14.9122 5.40036 14.7559 5.24408C14.5996 5.0878 14.3877 5 14.1667 5H5.83333C5.61232 5 5.40036 5.0878 5.24408 5.24408C5.0878 5.40036 5 5.61232 5 5.83333V14.1667C5 14.3877 5.0878 14.5996 5.24408 14.7559C5.40036 14.9122 5.61232 15 5.83333 15H10" stroke="white" stroke-linecap="round" stroke-linejoin="round"/>
<path d="M12.2223 13.8889C13.1428 13.8889 13.889 13.1427 13.889 12.2222C13.889 11.3017 13.1428 10.5555 12.2223 10.5555C11.3019 10.5555 10.5557 11.3017 10.5557 12.2222C10.5557 13.1427 11.3019 13.8889 12.2223 13.8889Z" stroke="white"/>
<path d="M7.22217 10.0001H9.44439M13.6111 13.3334L14.9999 14.4445L13.6111 13.3334ZM7.22217 7.77783H12.7777H7.22217Z" stroke="white" stroke-linecap="round" stroke-linejoin="round"/>
</svg>
