<svg width="17" height="18" viewBox="0 0 17 18" fill="none" xmlns="http://www.w3.org/2000/svg">
<path d="M7.03014 0.405016C7.35689 0.14287 7.76328 0 8.18219 0C8.6011 0 9.00749 0.14287 9.33424 0.405016L15.6754 5.4927C15.8906 5.66529 16.0642 5.88401 16.1834 6.1327C16.3027 6.38139 16.3645 6.65369 16.3644 6.9295V16.159C16.3644 16.6473 16.1704 17.1155 15.8252 17.4608C15.4799 17.806 15.0117 18 14.5234 18H12.0687C11.5805 18 11.1122 17.806 10.767 17.4608C10.4217 17.1155 10.2277 16.6473 10.2277 16.159V11.2497C10.2277 11.0869 10.1631 10.9309 10.048 10.8158C9.93292 10.7007 9.77683 10.636 9.61407 10.636H6.75031C6.58755 10.636 6.43147 10.7007 6.31638 10.8158C6.2013 10.9309 6.13664 11.0869 6.13664 11.2497V16.159C6.13664 16.6473 5.94268 17.1155 5.59743 17.4608C5.25218 17.806 4.78391 18 4.29565 18H1.84099C1.35273 18 0.884468 17.806 0.539214 17.4608C0.193961 17.1155 0 16.6473 0 16.159V6.9295C0 6.37147 0.253648 5.8429 0.68894 5.49352L7.03014 0.405834V0.405016ZM8.56594 1.36233C8.45706 1.27509 8.32171 1.22755 8.18219 1.22755C8.04267 1.22755 7.90732 1.27509 7.79845 1.36233L1.45725 6.45002C1.38553 6.50749 1.32763 6.58034 1.28783 6.66319C1.24804 6.74604 1.22736 6.83677 1.22733 6.92868V16.1582C1.22733 16.4977 1.50225 16.7719 1.84099 16.7719H4.29565C4.4584 16.7719 4.61449 16.7072 4.72958 16.5921C4.84466 16.477 4.90931 16.3209 4.90931 16.1582V11.2489C4.90931 10.7606 5.10328 10.2923 5.44853 9.94709C5.79378 9.60184 6.26205 9.40788 6.75031 9.40788H9.61407C9.85591 9.40788 10.0954 9.45553 10.3188 9.5481C10.5422 9.64067 10.7452 9.77635 10.9161 9.94738C11.0871 10.1184 11.2227 10.3215 11.3152 10.5449C11.4076 10.7684 11.4552 11.0079 11.4551 11.2497V16.159C11.4551 16.4986 11.73 16.7727 12.0687 16.7727H14.5234C14.6861 16.7727 14.8422 16.708 14.9573 16.5929C15.0724 16.4778 15.1371 16.3218 15.1371 16.159V6.9295C15.1371 6.83765 15.1166 6.74696 15.0769 6.66412C15.0373 6.58128 14.9795 6.50839 14.908 6.45084L8.56675 1.36315L8.56594 1.36233Z" fill="#AAAAAA"/>
</svg>
