<svg width="20" height="20" viewBox="0 0 20 20" fill="none" xmlns="http://www.w3.org/2000/svg">
<path d="M8.38536 2.9961C9.98178 2.994 11.5163 3.6135 12.6638 4.72335C13.8113 5.8332 14.4816 7.3462 14.5328 8.94179L14.5361 9.14682V12.5067L15.6678 15.095C15.7359 15.2509 15.7641 15.4214 15.7498 15.591C15.7355 15.7605 15.6793 15.9239 15.5861 16.0663C15.4929 16.2087 15.3658 16.3256 15.2161 16.4066C15.0664 16.4876 14.899 16.5301 14.7288 16.5301L10.8457 16.5326C10.8465 17.1731 10.5975 17.7887 10.1517 18.2485C9.70579 18.7083 9.09819 18.9761 8.45797 18.995C7.81776 19.0139 7.19542 18.7824 6.7232 18.3497C6.25099 17.917 5.96613 17.3172 5.92918 16.6778L5.92508 16.5301H2.05012C1.88021 16.5299 1.713 16.4875 1.56352 16.4068C1.41404 16.326 1.28697 16.2093 1.19372 16.0673C1.10046 15.9252 1.04394 15.7623 1.02924 15.593C1.01454 15.4237 1.04211 15.2534 1.10948 15.0974L2.23465 12.5076V9.14682C2.23465 5.73932 4.98361 2.9961 8.38536 2.9961ZM9.61551 16.531L7.15522 16.5326C7.15517 16.8486 7.27671 17.1525 7.49465 17.3813C7.71259 17.6101 8.01022 17.7462 8.32584 17.7615C8.64145 17.7768 8.95085 17.6701 9.18989 17.4634C9.42893 17.2567 9.57928 16.966 9.60977 16.6515L9.61469 16.531H9.61551ZM8.38536 4.22624C5.66265 4.22624 3.46479 6.41918 3.46479 9.14682V12.7634L2.36258 15.3008H14.4155L13.3059 12.7643V9.15748L13.3027 8.97296C13.2601 7.69805 12.723 6.48975 11.8053 5.60381C10.8875 4.71787 9.66098 4.22383 8.38536 4.22624Z" fill="black"/>
<path d="M6.93331 7.46672C7.6717 7.46672 8.3935 7.24776 9.00745 6.83753C9.6214 6.42731 10.0999 5.84424 10.3825 5.16205C10.6651 4.47987 10.739 3.72922 10.5949 3.00502C10.4509 2.28082 10.0953 1.6156 9.57319 1.09348C9.05107 0.571357 8.38585 0.21579 7.66165 0.0717371C6.93745 -0.0723153 6.1868 0.0016176 5.50461 0.284187C4.82243 0.566756 4.23936 1.04527 3.82914 1.65922C3.41891 2.27316 3.19995 2.99497 3.19995 3.73336C3.19995 4.72351 3.59329 5.6731 4.29343 6.37324C4.99357 7.07338 5.94316 7.46672 6.93331 7.46672ZM6.93331 1.06668C7.46073 1.06668 7.97631 1.22307 8.41484 1.51609C8.85337 1.80911 9.19517 2.22559 9.397 2.71286C9.59884 3.20014 9.65165 3.73632 9.54875 4.2536C9.44586 4.77089 9.19188 5.24605 8.81894 5.61899C8.446 5.99193 7.97084 6.24591 7.45355 6.3488C6.93627 6.4517 6.40009 6.39889 5.91281 6.19705C5.42554 5.99522 5.00906 5.65342 4.71604 5.21489C4.42302 4.77636 4.26662 4.26078 4.26662 3.73336C4.26662 3.02611 4.54758 2.34783 5.04768 1.84773C5.54778 1.34763 6.22606 1.06668 6.93331 1.06668Z" fill="black"/>
<path d="M13.5841 11.3972C12.7288 10.4932 11.6981 9.77318 10.555 9.28108C9.41196 8.78897 8.18054 8.53516 6.93605 8.53516C5.69155 8.53516 4.46013 8.78897 3.31707 9.28108C2.174 9.77318 1.14331 10.4932 0.288003 11.3972C0.102569 11.5953 -0.000419689 11.8566 1.2855e-06 12.1279V14.9333C1.2855e-06 15.2162 0.112383 15.4875 0.312423 15.6875C0.512463 15.8876 0.783776 15.9999 1.06668 15.9999H12.8001C13.083 15.9999 13.3543 15.8876 13.5543 15.6875C13.7544 15.4875 13.8668 15.2162 13.8668 14.9333V12.1279C13.8686 11.8573 13.7676 11.5961 13.5841 11.3972ZM12.8001 14.9333H1.06668V12.1226C1.82253 11.3267 2.73244 10.6929 3.74102 10.2598C4.74959 9.8267 5.83575 9.60336 6.93338 9.60336C8.03101 9.60336 9.11717 9.8267 10.1257 10.2598C11.1343 10.6929 12.0442 11.3267 12.8001 12.1226V14.9333Z" fill="black"/>
<path d="M14.5677 0.0742188H15.0073C15.0464 0.0742188 15.066 0.0937602 15.066 0.132843V5.29179C15.066 5.33087 15.0464 5.35042 15.0073 5.35042H14.5677C14.5286 5.35042 14.509 5.33087 14.509 5.29179V0.132843C14.509 0.0937602 14.5286 0.0742188 14.5677 0.0742188Z" fill="black"/>
<path d="M12.3252 2.43384H17.2497C17.2888 2.43384 17.3083 2.45338 17.3083 2.49246V2.93215C17.3083 2.97123 17.2888 2.99077 17.2497 2.99077H12.3252C12.2861 2.99077 12.2666 2.97123 12.2666 2.93215V2.49246C12.2666 2.45338 12.2861 2.43384 12.3252 2.43384Z" fill="black"/>
<path d="M13.5715 16H5.00003C4.69702 15.9997 4.40651 15.8792 4.19225 15.6649C3.97799 15.4506 3.85748 15.1601 3.85718 14.8571V11.4285H5.00003V14.8571H13.5715V2.28568H8.42861V1.14282H13.5715C13.8745 1.14312 14.165 1.26363 14.3793 1.47789C14.5935 1.69215 14.714 1.98267 14.7143 2.28568V14.8571C14.714 15.1601 14.5935 15.4506 14.3793 15.6649C14.165 15.8792 13.8745 15.9997 13.5715 16Z" fill="white"/>
<path d="M8.42847 4.57141H12.4285V5.71427H8.42847V4.57141Z" fill="white"/>
<path d="M7.85718 7.42859H12.4286V8.57145H7.85718V7.42859Z" fill="white"/>
<path d="M7.28564 10.2858H12.4285V11.4286H7.28564V10.2858Z" fill="white"/>
<rect width="20" height="20" rx="3" fill="#373737"/>
<path d="M10 5.625C8.83968 5.625 7.72688 6.08594 6.90641 6.90641C6.08594 7.72688 5.625 8.83968 5.625 10C5.625 11.1603 6.08594 12.2731 6.90641 13.0936C7.72688 13.9141 8.83968 14.375 10 14.375C11.1603 14.375 12.2731 13.9141 13.0936 13.0936C13.9141 12.2731 14.375 11.1603 14.375 10C14.375 8.83968 13.9141 7.72688 13.0936 6.90641C12.2731 6.08594 11.1603 5.625 10 5.625ZM10 13.75V6.25C10.4925 6.25 10.9801 6.347 11.4351 6.53545C11.89 6.72391 12.3034 7.00013 12.6517 7.34835C12.9999 7.69657 13.2761 8.10997 13.4645 8.56494C13.653 9.01991 13.75 9.50754 13.75 10C13.75 10.4925 13.653 10.9801 13.4645 11.4351C13.2761 11.89 12.9999 12.3034 12.6517 12.6517C12.3034 12.9999 11.89 13.2761 11.4351 13.4645C10.9801 13.653 10.4925 13.75 10 13.75Z" fill="white"/>
</svg>
