<svg width="20" height="20" viewBox="0 0 20 20" fill="none" xmlns="http://www.w3.org/2000/svg">
<path d="M7.28571 2V4.28571L6.14286 4.85714L4.42857 3.14286L2.14286 5.42857L3.85714 7.14286L3.28571 8.28571H1V11.7143H3.28571L3.85714 12.8571L2.14286 14.5714L4.42857 16.8571L6.14286 15.1429L7.28571 15.7143V18H10.7143V15.7143L11.8571 15.1429L13.5714 16.8571L15.8571 14.5714L14.1429 12.8571L14.7143 11.7143H17V8.28571H14.7143L14.1429 7.14286L15.8571 5.42857L13.5714 3.14286L11.8571 4.85714L10.7143 4.28571V2H7.28571Z" stroke="black" stroke-linecap="round" stroke-linejoin="round"/>
<path d="M9.00007 12.2859C10.2624 12.2859 11.2858 11.2626 11.2858 10.0002C11.2858 8.73783 10.2624 7.71448 9.00007 7.71448C7.7377 7.71448 6.71436 8.73783 6.71436 10.0002C6.71436 11.2626 7.7377 12.2859 9.00007 12.2859Z" stroke="black" stroke-linecap="round" stroke-linejoin="round"/>
<path d="M6.93331 7.46672C7.6717 7.46672 8.3935 7.24776 9.00745 6.83753C9.6214 6.42731 10.0999 5.84424 10.3825 5.16205C10.6651 4.47987 10.739 3.72922 10.5949 3.00502C10.4509 2.28082 10.0953 1.6156 9.57319 1.09348C9.05107 0.571357 8.38585 0.21579 7.66165 0.0717371C6.93745 -0.0723153 6.1868 0.0016176 5.50461 0.284187C4.82243 0.566756 4.23936 1.04527 3.82914 1.65922C3.41891 2.27316 3.19995 2.99497 3.19995 3.73336C3.19995 4.72351 3.59329 5.6731 4.29343 6.37324C4.99357 7.07338 5.94316 7.46672 6.93331 7.46672ZM6.93331 1.06668C7.46073 1.06668 7.97631 1.22307 8.41484 1.51609C8.85337 1.80911 9.19517 2.22559 9.397 2.71286C9.59884 3.20014 9.65165 3.73632 9.54875 4.2536C9.44586 4.77089 9.19188 5.24605 8.81894 5.61899C8.446 5.99193 7.97084 6.24591 7.45355 6.3488C6.93627 6.4517 6.40009 6.39889 5.91281 6.19705C5.42554 5.99522 5.00906 5.65342 4.71604 5.21489C4.42302 4.77636 4.26662 4.26078 4.26662 3.73336C4.26662 3.02611 4.54758 2.34783 5.04768 1.84773C5.54778 1.34763 6.22606 1.06668 6.93331 1.06668Z" fill="black"/>
<path d="M13.5841 11.3972C12.7288 10.4932 11.6981 9.77318 10.555 9.28108C9.41196 8.78897 8.18054 8.53516 6.93605 8.53516C5.69155 8.53516 4.46013 8.78897 3.31707 9.28108C2.174 9.77318 1.14331 10.4932 0.288003 11.3972C0.102569 11.5953 -0.000419689 11.8566 1.2855e-06 12.1279V14.9333C1.2855e-06 15.2162 0.112383 15.4875 0.312423 15.6875C0.512463 15.8876 0.783776 15.9999 1.06668 15.9999H12.8001C13.083 15.9999 13.3543 15.8876 13.5543 15.6875C13.7544 15.4875 13.8668 15.2162 13.8668 14.9333V12.1279C13.8686 11.8573 13.7676 11.5961 13.5841 11.3972ZM12.8001 14.9333H1.06668V12.1226C1.82253 11.3267 2.73244 10.6929 3.74102 10.2598C4.74959 9.8267 5.83575 9.60336 6.93338 9.60336C8.03101 9.60336 9.11717 9.8267 10.1257 10.2598C11.1343 10.6929 12.0442 11.3267 12.8001 12.1226V14.9333Z" fill="black"/>
<path d="M14.5677 0.0742188H15.0073C15.0464 0.0742188 15.066 0.0937602 15.066 0.132843V5.29179C15.066 5.33087 15.0464 5.35042 15.0073 5.35042H14.5677C14.5286 5.35042 14.509 5.33087 14.509 5.29179V0.132843C14.509 0.0937602 14.5286 0.0742188 14.5677 0.0742188Z" fill="black"/>
<path d="M12.3252 2.43384H17.2497C17.2888 2.43384 17.3083 2.45338 17.3083 2.49246V2.93215C17.3083 2.97123 17.2888 2.99077 17.2497 2.99077H12.3252C12.2861 2.99077 12.2666 2.97123 12.2666 2.93215V2.49246C12.2666 2.45338 12.2861 2.43384 12.3252 2.43384Z" fill="black"/>
<path d="M13.5715 16H5.00003C4.69702 15.9997 4.40651 15.8792 4.19225 15.6649C3.97799 15.4506 3.85748 15.1601 3.85718 14.8571V11.4285H5.00003V14.8571H13.5715V2.28568H8.42861V1.14282H13.5715C13.8745 1.14312 14.165 1.26363 14.3793 1.47789C14.5935 1.69215 14.714 1.98267 14.7143 2.28568V14.8571C14.714 15.1601 14.5935 15.4506 14.3793 15.6649C14.165 15.8792 13.8745 15.9997 13.5715 16Z" fill="black"/>
<path d="M8.42847 4.57141H12.4285V5.71427H8.42847V4.57141Z" fill="black"/>
<path d="M7.85718 7.42859H12.4286V8.57145H7.85718V7.42859Z" fill="black"/>
<path d="M7.28564 10.2858H12.4285V11.4286H7.28564V10.2858Z" fill="black"/>
<rect width="20" height="20" rx="3" fill="#577DF4"/>
<path d="M9.49205 13.9999C9.68133 13.9956 9.86297 13.9244 10.0048 13.799C10.1467 13.6736 10.2397 13.5021 10.2673 13.3148H8.68677C8.71515 13.5072 8.81246 13.6828 8.96059 13.8088C9.10872 13.9348 9.29759 14.0027 9.49205 13.9999Z" fill="white"/>
<path d="M13.8521 12.0619C13.5623 11.8036 13.3087 11.5074 13.0979 11.1815C12.8678 10.7315 12.7299 10.2401 12.6922 9.73617V8.2518C12.691 8.0715 12.6749 7.89161 12.6442 7.71395C12.4077 7.66667 12.1804 7.58144 11.9711 7.46155C12.0509 7.71841 12.0914 7.98585 12.0913 8.25481V9.73917C12.1281 10.354 12.2972 10.9535 12.5871 11.497C12.7945 11.8257 13.0407 12.1283 13.3202 12.3984H5.62499C5.90456 12.1283 6.15071 11.8257 6.35816 11.497C6.64801 10.9535 6.81712 10.354 6.85395 9.73917V8.2518C6.85237 7.90406 6.9194 7.55941 7.0512 7.23761C7.183 6.9158 7.37698 6.62315 7.62204 6.37642C7.86709 6.12969 8.15841 5.93372 8.47932 5.79973C8.80022 5.66574 9.1444 5.59636 9.49215 5.59558C10.0011 5.59599 10.4986 5.74649 10.9224 6.02827C10.8757 5.85669 10.8495 5.68018 10.8443 5.50243V5.31313C10.5306 5.15879 10.1935 5.05727 9.84671 5.01265V4.63405C9.84671 4.52766 9.80445 4.42563 9.72922 4.3504C9.65399 4.27517 9.55196 4.23291 9.44557 4.23291C9.33918 4.23291 9.23715 4.27517 9.16192 4.3504C9.0867 4.42563 9.04443 4.52766 9.04443 4.63405V5.02767C8.26791 5.13721 7.55724 5.52399 7.04362 6.11659C6.52999 6.70919 6.2481 7.4676 6.24999 8.2518V9.73617C6.21236 10.2401 6.07444 10.7315 5.84434 11.1815C5.63728 11.5067 5.38768 11.8028 5.10216 12.0619C5.07011 12.09 5.04442 12.1247 5.02681 12.1635C5.00919 12.2024 5.00005 12.2446 5 12.2872V12.6959C5 12.7756 5.03166 12.852 5.08801 12.9083C5.14436 12.9647 5.22079 12.9964 5.30048 12.9964H13.6538C13.7335 12.9964 13.8099 12.9647 13.8662 12.9083C13.9226 12.852 13.9542 12.7756 13.9542 12.6959V12.2872C13.9542 12.2446 13.9451 12.2024 13.9274 12.1635C13.9098 12.1247 13.8841 12.09 13.8521 12.0619Z" fill="white"/>
<path d="M13.0981 7.00478C13.9278 7.00478 14.6005 6.33214 14.6005 5.50239C14.6005 4.67264 13.9278 4 13.0981 4C12.2683 4 11.5957 4.67264 11.5957 5.50239C11.5957 6.33214 12.2683 7.00478 13.0981 7.00478Z" fill="white"/>
</svg>
