<svg width="23" height="23" viewBox="0 0 23 23" fill="none" xmlns="http://www.w3.org/2000/svg">
<path d="M10.3316 22.9998C10.767 22.9898 11.1848 22.8261 11.5111 22.5377C11.8374 22.2494 12.0512 21.8549 12.1147 21.4241H8.47949C8.54478 21.8666 8.7686 22.2703 9.10929 22.5602C9.44999 22.85 9.88438 23.0062 10.3316 22.9998Z" fill="black"/>
<path d="M20.3598 18.5422C19.6934 17.9481 19.1099 17.267 18.6251 16.5173C18.0959 15.4824 17.7787 14.3523 17.6921 13.1931V9.7791C17.6893 9.36441 17.6524 8.95065 17.5816 8.54203C17.0376 8.4333 16.5148 8.23726 16.0335 7.96151C16.217 8.55229 16.3102 9.16739 16.3099 9.78601V13.2C16.3947 14.614 16.7836 15.9931 17.4503 17.243C17.9274 17.999 18.4935 18.6951 19.1365 19.3163H1.43749C2.08049 18.6951 2.64663 17.999 3.12377 17.243C3.79041 15.9931 4.17938 14.614 4.26408 13.2V9.7791C4.26045 8.97928 4.41461 8.1866 4.71775 7.44645C5.02089 6.70629 5.46705 6.0332 6.03068 5.46571C6.59432 4.89823 7.26435 4.4475 8.00243 4.13932C8.7405 3.83115 9.53211 3.67159 10.3319 3.66978C11.5025 3.67072 12.6468 4.01689 13.6216 4.66496C13.5141 4.27034 13.4538 3.86436 13.4419 3.45554V3.02015C12.7203 2.66517 11.9451 2.43167 11.1474 2.32905V1.45826C11.1474 1.21357 11.0502 0.978897 10.8772 0.805873C10.7042 0.632849 10.4695 0.535645 10.2248 0.535645C9.98012 0.535645 9.74545 0.632849 9.57243 0.805873C9.3994 0.978897 9.3022 1.21357 9.3022 1.45826V2.3636C7.5162 2.61555 5.88165 3.50512 4.70032 4.8681C3.51899 6.23108 2.87064 7.97543 2.87497 9.7791V13.1931C2.78842 14.3523 2.47122 15.4824 1.94199 16.5173C1.46574 17.2653 0.891653 17.9463 0.234974 18.5422C0.161255 18.607 0.102173 18.6867 0.0616581 18.7761C0.0211431 18.8655 0.000124257 18.9624 0 19.0606V20.0005C0 20.1838 0.072812 20.3595 0.202418 20.4891C0.332025 20.6187 0.507809 20.6916 0.6911 20.6916H19.9037C20.087 20.6916 20.2627 20.6187 20.3923 20.4891C20.522 20.3595 20.5948 20.1838 20.5948 20.0005V19.0606C20.5946 18.9624 20.5736 18.8655 20.5331 18.7761C20.4926 18.6867 20.4335 18.607 20.3598 18.5422Z" fill="black"/>
<path d="M18.6257 6.911C20.5341 6.911 22.0812 5.36392 22.0812 3.4555C22.0812 1.54708 20.5341 0 18.6257 0C16.7172 0 15.1702 1.54708 15.1702 3.4555C15.1702 5.36392 16.7172 6.911 18.6257 6.911Z" fill="#04217F"/>
</svg>
