<svg width="17" height="17" viewBox="0 0 17 17" fill="none" xmlns="http://www.w3.org/2000/svg">
<path d="M15.4734 13.8734C15.0694 12.9191 14.4832 12.0523 13.7473 11.3212C13.0136 10.5881 12.1445 10.0035 11.188 9.59987C11.1794 9.5956 11.1709 9.59347 11.1623 9.5892C12.4965 8.62814 13.3639 7.06269 13.3639 5.29648C13.3639 2.3706 10.9867 0 8.05263 0C5.11858 0 2.74136 2.3706 2.74136 5.29648C2.74136 7.06269 3.60872 8.62814 4.94297 9.59133C4.9344 9.5956 4.92583 9.59774 4.91727 9.60201C3.95781 10.0057 3.09687 10.5844 2.358 11.3234C1.6228 12.055 1.03662 12.9216 0.631838 13.8755C0.234183 14.8093 0.019718 15.8105 5.35539e-05 16.8249C-0.000518061 16.8477 0.00349115 16.8703 0.0118451 16.8916C0.020199 16.9128 0.0327285 16.9321 0.0486954 16.9485C0.0646623 16.9648 0.0837434 16.9777 0.104815 16.9866C0.125886 16.9955 0.14852 17 0.171385 17H1.45637C1.5506 17 1.62556 16.9253 1.6277 16.8334C1.67054 15.1847 2.33444 13.6406 3.50806 12.4702C4.72238 11.2593 6.33503 10.593 8.05263 10.593C9.77023 10.593 11.3829 11.2593 12.5972 12.4702C13.7708 13.6406 14.4347 15.1847 14.4776 16.8334C14.4797 16.9274 14.5547 17 14.6489 17H15.9339C15.9567 17 15.9794 16.9955 16.0004 16.9866C16.0215 16.9777 16.0406 16.9648 16.0566 16.9485C16.0725 16.9321 16.0851 16.9128 16.0934 16.8916C16.1018 16.8703 16.1058 16.8477 16.1052 16.8249C16.0838 15.804 15.8718 14.8109 15.4734 13.8734ZM8.05263 8.96985C7.06962 8.96985 6.14443 8.58756 5.44839 7.89347C4.75236 7.19937 4.36901 6.27676 4.36901 5.29648C4.36901 4.31621 4.75236 3.39359 5.44839 2.6995C6.14443 2.0054 7.06962 1.62312 8.05263 1.62312C9.03565 1.62312 9.96083 2.0054 10.6569 2.6995C11.3529 3.39359 11.7363 4.31621 11.7363 5.29648C11.7363 6.27676 11.3529 7.19937 10.6569 7.89347C9.96083 8.58756 9.03565 8.96985 8.05263 8.96985Z" fill="#AAAAAA"/>
</svg>
