<svg width="20" height="20" viewBox="0 0 20 20" fill="none" xmlns="http://www.w3.org/2000/svg">
<path d="M8 0C6.41775 0 4.87103 0.469192 3.55544 1.34824C2.23985 2.22729 1.21447 3.47672 0.608967 4.93853C0.00346625 6.40034 -0.15496 8.00887 0.153721 9.56072C0.462403 11.1126 1.22433 12.538 2.34315 13.6569C3.46197 14.7757 4.88743 15.5376 6.43928 15.8463C7.99113 16.155 9.59966 15.9965 11.0615 15.391C12.5233 14.7855 13.7727 13.7602 14.6518 12.4446C15.5308 11.129 16 9.58225 16 8C16 5.87827 15.1571 3.84344 13.6569 2.34315C12.1566 0.842855 10.1217 0 8 0ZM8 15C6.61553 15 5.26215 14.5895 4.11101 13.8203C2.95987 13.0511 2.06266 11.9579 1.53285 10.6788C1.00303 9.3997 0.86441 7.99223 1.13451 6.63437C1.4046 5.2765 2.07129 4.02922 3.05026 3.05025C4.02922 2.07128 5.2765 1.4046 6.63437 1.1345C7.99224 0.864406 9.3997 1.00303 10.6788 1.53284C11.9579 2.06266 13.0511 2.95986 13.8203 4.11101C14.5895 5.26215 15 6.61553 15 8C15 9.85651 14.2625 11.637 12.9497 12.9497C11.637 14.2625 9.85652 15 8 15Z" fill="black"/>
<path d="M8.145 3.45998C7.60318 3.45102 7.06603 3.56151 6.57173 3.7836C6.07743 4.00569 5.63811 4.33392 5.285 4.74498C5.23594 4.79044 5.1965 4.84528 5.16902 4.90626C5.14154 4.96724 5.12657 5.03311 5.125 5.09998C5.12497 5.16167 5.13734 5.22273 5.16139 5.27955C5.18544 5.33636 5.22067 5.38775 5.26499 5.43067C5.30931 5.47358 5.3618 5.50715 5.41936 5.52936C5.47691 5.55158 5.53834 5.56199 5.6 5.55998C5.73209 5.5567 5.85839 5.50511 5.955 5.41498C6.22223 5.10182 6.55414 4.85027 6.92788 4.67764C7.30162 4.50501 7.70832 4.4154 8.12 4.41498C9.3 4.41498 10.035 5.17498 10.035 6.11998V6.14498C10.035 7.24998 9.155 7.86498 7.765 7.96998C7.70872 7.97215 7.65353 7.98618 7.60304 8.01116C7.55256 8.03614 7.50792 8.0715 7.47204 8.11493C7.43617 8.15835 7.40987 8.20886 7.39487 8.26315C7.37987 8.31745 7.37651 8.37429 7.385 8.42998V9.80498C7.39744 9.92874 7.45556 10.0434 7.54801 10.1266C7.64047 10.2098 7.76062 10.2556 7.885 10.255H7.94C8.06376 10.2425 8.17844 10.1844 8.26165 10.092C8.34486 9.99951 8.39062 9.87936 8.39 9.75498V8.72498C9.89 8.51498 11.105 7.72498 11.105 6.08498V6.05998C11.09 4.55998 9.92 3.45998 8.145 3.45998Z" fill="black"/>
<path d="M7.88989 12.7251C8.23507 12.7251 8.51489 12.4453 8.51489 12.1001C8.51489 11.7549 8.23507 11.4751 7.88989 11.4751C7.54471 11.4751 7.26489 11.7549 7.26489 12.1001C7.26489 12.4453 7.54471 12.7251 7.88989 12.7251Z" fill="black"/>
<path d="M13.5715 16H5.00003C4.69702 15.9997 4.40651 15.8792 4.19225 15.6649C3.97799 15.4506 3.85748 15.1601 3.85718 14.8571V11.4285H5.00003V14.8571H13.5715V2.28568H8.42861V1.14282H13.5715C13.8745 1.14312 14.165 1.26363 14.3793 1.47789C14.5935 1.69215 14.714 1.98267 14.7143 2.28568V14.8571C14.714 15.1601 14.5935 15.4506 14.3793 15.6649C14.165 15.8792 13.8745 15.9997 13.5715 16Z" fill="black"/>
<path d="M8.42847 4.57141H12.4285V5.71427H8.42847V4.57141Z" fill="black"/>
<path d="M7.85718 7.42859H12.4286V8.57145H7.85718V7.42859Z" fill="black"/>
<path d="M7.28564 10.2858H12.4285V11.4286H7.28564V10.2858Z" fill="black"/>
<rect width="20" height="20" rx="3" fill="#8D55E9"/>
<path d="M14.1211 6.48438H5.87891C5.39428 6.48438 5 6.87865 5 7.36328V12.6367C5 13.1213 5.39428 13.5156 5.87891 13.5156H14.1211C14.6057 13.5156 15 13.1213 15 12.6367V7.36328C15 6.87865 14.6057 6.48438 14.1211 6.48438ZM14.4141 12.6367C14.4141 12.7983 14.2826 12.9297 14.1211 12.9297H5.87891C5.71736 12.9297 5.58594 12.7983 5.58594 12.6367V7.36328C5.58594 7.20174 5.71736 7.07031 5.87891 7.07031H14.1211C14.2826 7.07031 14.4141 7.20174 14.4141 7.36328V12.6367Z" fill="white"/>
<path d="M12.9492 7.65625C12.7243 7.65625 12.5189 7.74127 12.3633 7.88076C12.2077 7.74127 12.0023 7.65625 11.7773 7.65625C11.2927 7.65625 10.8984 8.05053 10.8984 8.53516C10.8984 9.01979 11.2927 9.41406 11.7773 9.41406C12.0023 9.41406 12.2077 9.32904 12.3633 9.18955C12.5189 9.32902 12.7243 9.41406 12.9492 9.41406C13.4338 9.41406 13.8281 9.01979 13.8281 8.53516C13.8281 8.05053 13.4338 7.65625 12.9492 7.65625ZM11.7773 8.82812C11.6158 8.82812 11.4844 8.6967 11.4844 8.53516C11.4844 8.37361 11.6158 8.24219 11.7773 8.24219C11.9389 8.24219 12.0703 8.37361 12.0703 8.53516C12.0703 8.6967 11.9389 8.82812 11.7773 8.82812ZM12.9492 8.82812C12.7877 8.82812 12.6562 8.6967 12.6562 8.53516C12.6562 8.37361 12.7877 8.24219 12.9492 8.24219C13.1108 8.24219 13.2422 8.37361 13.2422 8.53516C13.2422 8.6967 13.1108 8.82812 12.9492 8.82812Z" fill="white"/>
<path d="M6.17188 7.65625V9.41406H8.32031V7.65625H6.17188ZM7.73438 8.82812H6.75781V8.24219H7.73438V8.82812Z" fill="white"/>
<path d="M13.8281 10.5859H6.17188V11.1719H13.8281V10.5859Z" fill="white"/>
<path d="M10 11.7578H6.17188V12.3438H10V11.7578Z" fill="white"/>
</svg>
