<svg width="20" height="20" viewBox="0 0 20 20" fill="none" xmlns="http://www.w3.org/2000/svg">
<rect width="20" height="20" rx="3" fill="#F8AD6C"/>
<path d="M14.6583 13.0055L12.9691 11.3138L11.6697 10.7763C12.1024 10.1601 12.3342 9.42511 12.3333 8.67191C12.3333 6.64721 10.6885 5 8.66666 5C6.64485 5 5 6.64721 5 8.67191C5 10.6966 6.64485 12.3438 8.66666 12.3438C9.42533 12.3447 10.1654 12.1086 10.7837 11.6683L11.3191 12.966L13.0083 14.6578C13.1166 14.7663 13.2453 14.8523 13.3868 14.911C13.5284 14.9698 13.6801 15 13.8333 15C13.9865 15 14.1382 14.9698 14.2798 14.9111C14.4213 14.8524 14.5499 14.7663 14.6583 14.6578C14.7666 14.5493 14.8525 14.4205 14.9112 14.2788C14.9698 14.137 15 13.9851 15 13.8317C15 13.6782 14.9698 13.5263 14.9112 13.3846C14.8526 13.2428 14.7666 13.114 14.6583 13.0055ZM5.66667 8.67191C5.66667 7.01538 7.0125 5.66762 8.66666 5.66762C10.3208 5.66762 11.6667 7.01538 11.6667 8.67191C11.6667 10.3284 10.3208 11.6762 8.66666 11.6762C7.0125 11.6762 5.66667 10.3284 5.66667 8.67191ZM14.1869 14.1857C14.093 14.2795 13.9659 14.3321 13.8333 14.3321C13.7007 14.3321 13.5736 14.2795 13.4798 14.1857L11.8845 12.5882L11.3867 11.3816L12.5916 11.8801L14.1869 13.4776C14.2805 13.5716 14.3331 13.6989 14.3331 13.8317C14.3331 13.9644 14.2805 14.0917 14.1869 14.1857Z" fill="white"/>
</svg>
