<svg width="19" height="18" viewBox="0 0 19 18" fill="none" xmlns="http://www.w3.org/2000/svg">
<path d="M17.4099 14.4099L14.3649 11.3649L12.0227 10.3973C12.8026 9.28826 13.2204 7.96521 13.2189 6.60944C13.2189 2.96497 10.2539 0 6.60944 0C2.96497 0 0 2.96497 0 6.60944C0 10.2539 2.96497 13.2189 6.60944 13.2189C7.977 13.2204 9.311 12.7954 10.4256 12.003L11.3907 14.3388L14.4356 17.384C14.6309 17.5793 14.8627 17.7342 15.1179 17.8399C15.373 17.9456 15.6465 18 15.9227 18C16.1988 18 16.4723 17.9456 16.7275 17.8399C16.9826 17.7343 17.2145 17.5794 17.4098 17.3841C17.6051 17.1888 17.76 16.957 17.8657 16.7018C17.9714 16.4467 18.0258 16.1732 18.0258 15.897C18.0258 15.6208 17.9714 15.3474 17.8657 15.0922C17.76 14.8371 17.6051 14.6052 17.4099 14.4099V14.4099ZM1.20172 6.60944C1.20172 3.62768 3.62768 1.20172 6.60944 1.20172C9.5912 1.20172 12.0172 3.62768 12.0172 6.60944C12.0172 9.5912 9.5912 12.0172 6.60944 12.0172C3.62768 12.0172 1.20172 9.5912 1.20172 6.60944ZM16.5601 16.5343C16.3909 16.703 16.1617 16.7978 15.9227 16.7978C15.6838 16.7978 15.4546 16.703 15.2854 16.5343L12.4099 13.6587L11.5126 11.4868L13.6845 12.3841L16.5601 15.2597C16.7289 15.4288 16.8237 15.658 16.8236 15.897C16.8236 16.1359 16.7288 16.3651 16.5601 16.5343V16.5343Z" fill="#AAAAAA"/>
</svg>
