<svg width="23" height="18" viewBox="0 0 23 18" fill="none" xmlns="http://www.w3.org/2000/svg">
<path d="M20.7692 0H1.38462C1.01739 0 0.66521 0.145879 0.405544 0.405544C0.145879 0.66521 0 1.01739 0 1.38462V16.6154C0 16.9826 0.145879 17.3348 0.405544 17.5945C0.66521 17.8541 1.01739 18 1.38462 18H20.7692C21.1365 18 21.4886 17.8541 21.7483 17.5945C22.008 17.3348 22.1538 16.9826 22.1538 16.6154V1.38462C22.1538 1.01739 22.008 0.66521 21.7483 0.405544C21.4886 0.145879 21.1365 0 20.7692 0ZM1.38462 16.6154V1.38462H20.7692V16.6154H1.38462Z" fill="#AAAAAA"/>
<path d="M9.42906 7.07679L5.26275 13.1317L2.45752 10.6505L3.19137 9.8211L5.05921 11.4729L9.43875 5.10925L14.1118 12.0427L18.7877 5.86387L19.6711 6.53264L14.0592 13.9466L9.42906 7.07679Z" fill="#AAAAAA"/>
</svg>
