<svg width="20" height="20" viewBox="0 0 20 20" fill="none" xmlns="http://www.w3.org/2000/svg">
<path d="M13.5715 16H5.00003C4.69702 15.9997 4.40651 15.8792 4.19225 15.6649C3.97799 15.4506 3.85748 15.1601 3.85718 14.8571V11.4285H5.00003V14.8571H13.5715V2.28568H8.42861V1.14282H13.5715C13.8745 1.14312 14.165 1.26363 14.3793 1.47789C14.5935 1.69215 14.714 1.98267 14.7143 2.28568V14.8571C14.714 15.1601 14.5935 15.4506 14.3793 15.6649C14.165 15.8792 13.8745 15.9997 13.5715 16Z" fill="black"/>
<path d="M8.42847 4.57141H12.4285V5.71427H8.42847V4.57141Z" fill="black"/>
<path d="M7.85718 7.42859H12.4286V8.57145H7.85718V7.42859Z" fill="black"/>
<path d="M7.28564 10.2858H12.4285V11.4286H7.28564V10.2858Z" fill="black"/>
<rect width="20" height="20" rx="3" fill="#FF8585"/>
<path d="M15.5385 5H4.76923C4.56522 5 4.36956 5.08104 4.2253 5.2253C4.08104 5.36956 4 5.56522 4 5.76923V14.2308C4 14.4348 4.08104 14.6304 4.2253 14.7747C4.36956 14.919 4.56522 15 4.76923 15H15.5385C15.7425 15 15.9381 14.919 16.0824 14.7747C16.2266 14.6304 16.3077 14.4348 16.3077 14.2308V5.76923C16.3077 5.56522 16.2266 5.36956 16.0824 5.2253C15.9381 5.08104 15.7425 5 15.5385 5ZM4.76923 14.2308V5.76923H15.5385V14.2308H4.76923Z" fill="white"/>
<path d="M9.23831 8.93158L6.9237 12.2954L5.36523 10.917L5.77293 10.4562L6.81062 11.3739L9.2437 7.8385L11.8398 11.6904L14.4375 8.25773L14.9283 8.62927L11.8106 12.7481L9.23831 8.93158Z" fill="white"/>
</svg>
